<svg xmlns="http://www.w3.org/2000/svg" xmlns:xlink="http://www.w3.org/1999/xlink" width="200" zoomAndPan="magnify" viewBox="0 0 150 149.999998" height="200" preserveAspectRatio="xMidYMid meet" version="1.0"><defs><g/><clipPath id="8497b344d4"><path d="M 11.921875 15.054688 L 137.921875 15.054688 L 137.921875 141.054688 L 11.921875 141.054688 Z M 11.921875 15.054688 " clip-rule="nonzero"/></clipPath><clipPath id="f9b254d4c9"><path d="M 18.140625 21.277344 L 132.140625 21.277344 L 132.140625 135.277344 L 18.140625 135.277344 Z M 18.140625 21.277344 " clip-rule="nonzero"/></clipPath></defs><g clip-path="url(#8497b344d4)"><path fill="#8fb193" d="M 74.921875 15.054688 C 40.128906 15.054688 11.921875 43.261719 11.921875 78.054688 C 11.921875 112.851562 40.128906 141.054688 74.921875 141.054688 C 109.71875 141.054688 137.921875 112.851562 137.921875 78.054688 C 137.921875 43.261719 109.71875 15.054688 74.921875 15.054688 " fill-opacity="1" fill-rule="nonzero"/></g><g clip-path="url(#f9b254d4c9)"><path fill="#ffffff" d="M 75.140625 21.277344 C 43.664062 21.277344 18.140625 46.796875 18.140625 78.277344 C 18.140625 109.757812 43.664062 135.277344 75.140625 135.277344 C 106.621094 135.277344 132.140625 109.757812 132.140625 78.277344 C 132.140625 46.796875 106.621094 21.277344 75.140625 21.277344 " fill-opacity="1" fill-rule="nonzero"/></g><g fill="#464a4e" fill-opacity="1"><g transform="translate(50.223693, 143.257584)"><g><path d="M 39.285156 -136.183594 C 39.097656 -136.183594 39.097656 -136.183594 38.910156 -135.996094 L 38.535156 -135.808594 C 38.160156 -135.808594 37.972656 -135.996094 37.972656 -136.371094 C 37.972656 -136.742188 37.785156 -136.929688 37.414062 -136.929688 C 36.851562 -136.929688 36.664062 -136.742188 36.664062 -136.183594 L 9.914062 -9.351562 C 9.351562 -7.667969 9.351562 -3.929688 9.351562 -2.246094 C 9.351562 -2.058594 9.351562 -1.871094 9.539062 -1.683594 L 9.539062 -0.933594 C 9.726562 -0.933594 9.726562 -0.933594 9.914062 -0.75 C 10.101562 -0.5625 10.101562 -0.5625 10.289062 -0.5625 L 10.851562 -0.75 C 11.035156 -0.75 11.222656 -0.75 11.410156 -0.933594 L 11.972656 -0.933594 L 12.535156 -2.617188 L 39.46875 -129.074219 C 39.84375 -130.757812 40.03125 -132.628906 40.03125 -134.3125 C 40.03125 -134.871094 40.03125 -136.183594 39.285156 -136.183594 Z M 38.160156 -133.1875 L 38.347656 -133.1875 L 38.347656 -132.816406 L 38.160156 -132.816406 Z M 38.535156 -132.066406 C 38.535156 -131.878906 38.535156 -131.878906 38.347656 -131.878906 C 38.347656 -131.691406 38.347656 -131.691406 38.160156 -131.691406 C 37.972656 -131.691406 37.972656 -131.691406 37.972656 -131.878906 C 37.972656 -132.066406 37.972656 -132.066406 38.160156 -132.066406 C 38.160156 -132.253906 38.160156 -132.253906 38.347656 -132.253906 C 38.160156 -132.253906 38.160156 -132.253906 38.160156 -132.441406 C 38.160156 -132.628906 38.160156 -132.628906 38.347656 -132.628906 C 38.535156 -132.628906 38.535156 -132.628906 38.535156 -132.441406 C 38.535156 -132.253906 38.535156 -132.253906 38.347656 -132.253906 C 38.535156 -132.253906 38.535156 -132.253906 38.535156 -132.066406 Z M 38.160156 -132.066406 C 38.160156 -131.878906 38.160156 -131.878906 38.347656 -131.878906 C 38.347656 -132.066406 38.347656 -132.066406 38.160156 -132.066406 Z M 38.160156 -129.820312 C 37.972656 -129.820312 37.972656 -129.820312 37.972656 -130.007812 C 37.972656 -130.195312 37.972656 -130.195312 38.160156 -130.195312 C 38.347656 -130.195312 38.347656 -130.195312 38.347656 -130.007812 C 38.347656 -129.820312 38.347656 -129.820312 38.160156 -129.820312 Z M 37.601562 -128.511719 C 37.414062 -128.511719 37.414062 -128.511719 37.414062 -128.699219 C 37.414062 -128.886719 37.414062 -128.886719 37.601562 -128.886719 C 37.785156 -128.886719 37.785156 -128.886719 37.785156 -128.699219 C 37.785156 -128.511719 37.785156 -128.511719 37.601562 -128.511719 Z M 37.226562 -126.082031 C 37.039062 -126.082031 37.039062 -126.082031 37.039062 -126.269531 C 37.039062 -126.453125 37.039062 -126.453125 37.226562 -126.453125 C 37.414062 -126.453125 37.414062 -126.453125 37.414062 -126.269531 C 37.414062 -126.082031 37.414062 -126.082031 37.226562 -126.082031 Z M 37.226562 -125.332031 C 37.226562 -125.144531 37.226562 -125.144531 37.039062 -125.144531 C 36.851562 -125.144531 36.851562 -125.144531 36.851562 -125.332031 C 36.851562 -125.519531 36.851562 -125.519531 37.039062 -125.519531 C 36.851562 -125.519531 36.851562 -125.519531 36.851562 -125.707031 C 36.851562 -125.894531 36.851562 -125.894531 37.039062 -125.894531 C 37.226562 -125.894531 37.226562 -125.894531 37.226562 -125.707031 C 37.226562 -125.519531 37.226562 -125.519531 37.039062 -125.519531 C 37.226562 -125.519531 37.226562 -125.519531 37.226562 -125.332031 Z M 36.851562 -124.398438 C 36.664062 -124.398438 36.664062 -124.398438 36.664062 -124.585938 C 36.664062 -124.769531 36.664062 -124.769531 36.851562 -124.769531 C 37.039062 -124.769531 37.039062 -124.769531 37.039062 -124.585938 C 37.039062 -124.398438 37.039062 -124.398438 36.851562 -124.398438 Z M 36.664062 -123.273438 C 36.476562 -123.273438 36.476562 -123.273438 36.476562 -123.460938 C 36.476562 -123.648438 36.476562 -123.648438 36.664062 -123.648438 C 36.851562 -123.648438 36.851562 -123.648438 36.851562 -123.460938 C 36.851562 -123.273438 36.851562 -123.273438 36.664062 -123.273438 Z M 36.476562 -122.527344 C 36.289062 -122.527344 36.289062 -122.527344 36.289062 -122.714844 C 36.289062 -122.902344 36.289062 -122.902344 36.476562 -122.902344 C 36.664062 -122.902344 36.664062 -122.902344 36.664062 -122.714844 C 36.664062 -122.527344 36.664062 -122.527344 36.476562 -122.527344 Z M 35.730469 -119.347656 C 35.542969 -119.347656 35.542969 -119.347656 35.542969 -119.535156 C 35.542969 -119.722656 35.542969 -119.722656 35.730469 -119.722656 C 35.917969 -119.722656 35.917969 -119.722656 35.917969 -119.535156 C 35.917969 -119.347656 35.917969 -119.347656 35.730469 -119.347656 Z M 35.542969 -118.785156 L 35.730469 -118.972656 C 35.730469 -118.785156 35.730469 -118.785156 35.542969 -118.785156 Z M 35.542969 -118.222656 C 35.355469 -118.222656 35.355469 -118.222656 35.355469 -118.410156 C 35.355469 -118.597656 35.355469 -118.597656 35.542969 -118.597656 C 35.730469 -118.597656 35.730469 -118.597656 35.730469 -118.410156 C 35.730469 -118.222656 35.730469 -118.222656 35.542969 -118.222656 Z M 35.167969 -116.726562 C 34.980469 -116.726562 34.980469 -116.726562 34.980469 -116.914062 C 34.980469 -117.101562 34.980469 -117.101562 35.167969 -117.101562 C 35.355469 -117.101562 35.355469 -117.101562 35.355469 -116.914062 C 35.355469 -116.726562 35.355469 -116.726562 35.167969 -116.726562 Z M 34.980469 -116.355469 C 34.792969 -116.355469 34.792969 -116.355469 34.792969 -116.539062 C 34.792969 -116.726562 34.792969 -116.726562 34.980469 -116.726562 C 35.167969 -116.726562 35.167969 -116.726562 35.167969 -116.539062 C 35.167969 -116.355469 35.167969 -116.355469 34.980469 -116.355469 Z M 34.980469 -115.230469 C 34.792969 -115.230469 34.792969 -115.417969 34.792969 -115.605469 L 34.980469 -115.605469 Z M 34.792969 -114.855469 C 34.605469 -114.855469 34.605469 -114.855469 34.605469 -115.042969 C 34.605469 -115.230469 34.605469 -115.230469 34.792969 -115.230469 C 34.980469 -115.230469 34.980469 -115.230469 34.980469 -115.042969 C 34.980469 -114.855469 34.980469 -114.855469 34.792969 -114.855469 Z M 34.605469 -113.734375 L 34.417969 -114.109375 C 34.417969 -114.296875 34.417969 -114.296875 34.605469 -114.484375 L 34.605469 -114.855469 L 34.792969 -114.671875 Z M 33.859375 -112.613281 C 33.859375 -112.988281 34.046875 -113.171875 34.417969 -113.359375 C 34.417969 -112.800781 34.234375 -112.613281 33.859375 -112.613281 Z M 34.046875 -111.488281 L 33.859375 -111.675781 L 34.046875 -111.675781 Z M 34.046875 -110.742188 C 34.046875 -110.554688 34.046875 -110.554688 33.859375 -110.554688 C 33.671875 -110.554688 33.671875 -110.554688 33.671875 -110.742188 C 33.671875 -110.929688 33.671875 -110.929688 33.859375 -110.929688 C 33.671875 -110.929688 33.671875 -110.929688 33.671875 -111.117188 C 33.671875 -111.304688 33.671875 -111.304688 33.859375 -111.304688 C 34.046875 -111.304688 34.046875 -111.304688 34.046875 -111.117188 C 34.046875 -110.929688 34.046875 -110.929688 33.859375 -110.929688 C 34.046875 -110.929688 34.046875 -110.929688 34.046875 -110.742188 Z M 33.484375 -109.621094 L 33.484375 -109.992188 L 33.671875 -109.058594 C 33.484375 -109.058594 33.484375 -109.246094 33.484375 -109.621094 Z M 33.296875 -108.683594 L 33.296875 -108.871094 L 33.484375 -108.683594 Z M 33.296875 -108.121094 C 33.109375 -108.121094 33.109375 -108.121094 33.109375 -108.308594 C 33.109375 -108.496094 33.109375 -108.496094 33.296875 -108.496094 C 33.484375 -108.496094 33.484375 -108.496094 33.484375 -108.308594 C 33.484375 -108.121094 33.484375 -108.121094 33.296875 -108.121094 Z M 33.109375 -107.5625 L 33.296875 -107.75 C 33.296875 -107.5625 33.296875 -107.5625 33.109375 -107.5625 Z M 32.921875 -107 C 32.734375 -107 32.734375 -107 32.734375 -107.1875 C 32.734375 -107.375 32.734375 -107.375 32.921875 -107.375 C 33.109375 -107.375 33.109375 -107.375 33.109375 -107.1875 C 33.109375 -107 33.109375 -107 32.921875 -107 Z M 32.550781 -105.878906 C 32.363281 -105.878906 32.363281 -105.878906 32.363281 -106.066406 C 32.363281 -106.253906 32.363281 -106.253906 32.550781 -106.253906 C 32.734375 -106.253906 32.734375 -106.253906 32.734375 -106.066406 C 32.734375 -105.878906 32.734375 -105.878906 32.550781 -105.878906 Z M 32.550781 -105.503906 L 32.734375 -105.316406 C 32.550781 -105.316406 32.550781 -105.316406 32.550781 -105.503906 Z M 32.363281 -104.382812 C 32.175781 -104.382812 32.175781 -104.382812 32.175781 -104.570312 C 32.175781 -104.753906 32.175781 -104.753906 32.363281 -104.753906 C 32.550781 -104.753906 32.550781 -104.753906 32.550781 -104.570312 C 32.550781 -104.382812 32.550781 -104.382812 32.363281 -104.382812 Z M 32.175781 -104.007812 L 32.363281 -104.195312 C 32.363281 -104.007812 32.363281 -104.007812 32.175781 -104.007812 Z M 31.613281 -101.761719 C 31.613281 -102.136719 31.613281 -102.324219 31.800781 -102.511719 C 31.800781 -101.949219 31.800781 -101.761719 31.613281 -101.761719 Z M 31.613281 -101.015625 C 31.613281 -100.828125 31.613281 -100.828125 31.425781 -100.828125 L 31.613281 -101.015625 C 31.425781 -101.015625 31.425781 -101.015625 31.425781 -101.203125 C 31.425781 -101.386719 31.425781 -101.386719 31.613281 -101.386719 C 31.800781 -101.386719 31.800781 -101.386719 31.800781 -101.203125 C 31.800781 -101.015625 31.800781 -101.015625 31.613281 -101.015625 Z M 31.238281 -100.453125 C 31.050781 -100.453125 31.050781 -100.453125 31.050781 -100.640625 C 31.050781 -100.828125 31.050781 -100.828125 31.238281 -100.828125 C 31.425781 -100.828125 31.425781 -100.828125 31.425781 -100.640625 C 31.425781 -100.453125 31.425781 -100.453125 31.238281 -100.453125 Z M 31.050781 -100.453125 C 31.238281 -100.453125 31.238281 -100.265625 31.238281 -99.890625 Z M 31.238281 -98.957031 C 31.050781 -98.957031 30.867188 -99.144531 30.867188 -99.332031 C 30.867188 -99.519531 30.867188 -99.703125 31.050781 -99.703125 L 31.425781 -99.519531 L 31.050781 -99.332031 Z M 30.867188 -98.582031 L 31.050781 -98.394531 C 30.867188 -98.394531 30.867188 -98.394531 30.867188 -98.582031 Z M 30.867188 -98.019531 C 30.679688 -98.019531 30.679688 -98.019531 30.679688 -98.207031 C 30.679688 -98.394531 30.679688 -98.394531 30.867188 -98.394531 C 31.050781 -98.394531 31.050781 -98.394531 31.050781 -98.207031 C 31.050781 -98.019531 31.050781 -98.019531 30.867188 -98.019531 Z M 30.679688 -97.648438 L 30.867188 -97.835938 C 30.867188 -97.648438 30.867188 -97.648438 30.679688 -97.648438 Z M 30.679688 -96.523438 C 30.492188 -96.523438 30.492188 -96.523438 30.492188 -96.710938 C 30.492188 -96.898438 30.492188 -96.898438 30.679688 -96.898438 C 30.867188 -96.898438 30.867188 -96.898438 30.867188 -96.710938 C 30.867188 -96.523438 30.867188 -96.523438 30.679688 -96.523438 Z M 30.492188 -95.964844 C 30.304688 -95.964844 30.304688 -95.964844 30.304688 -96.152344 C 30.304688 -96.335938 30.304688 -96.335938 30.492188 -96.335938 C 30.679688 -96.335938 30.679688 -96.335938 30.679688 -96.152344 C 30.679688 -95.964844 30.679688 -95.964844 30.492188 -95.964844 Z M 30.304688 -95.402344 C 30.117188 -95.402344 30.117188 -95.402344 30.117188 -95.589844 C 30.117188 -95.777344 30.117188 -95.777344 30.304688 -95.777344 C 30.492188 -95.777344 30.492188 -95.777344 30.492188 -95.589844 C 30.492188 -95.402344 30.492188 -95.402344 30.304688 -95.402344 Z M 29.929688 -94.09375 C 29.742188 -94.09375 29.742188 -94.09375 29.742188 -94.28125 C 29.742188 -94.46875 29.742188 -94.46875 29.929688 -94.46875 C 30.117188 -94.46875 30.117188 -94.46875 30.117188 -94.28125 C 30.117188 -94.09375 30.117188 -94.09375 29.929688 -94.09375 Z M 29.742188 -94.09375 C 29.929688 -94.09375 29.929688 -93.90625 29.929688 -93.53125 C 29.742188 -93.53125 29.742188 -93.71875 29.742188 -94.09375 Z M 29.742188 -92.96875 C 29.742188 -92.035156 29.554688 -91.285156 29.367188 -90.914062 L 29.183594 -91.285156 C 29.183594 -91.847656 29.183594 -92.785156 29.742188 -93.34375 Z M 29.183594 -90.164062 L 28.996094 -90.351562 L 29.183594 -90.726562 Z M 28.996094 -89.042969 C 28.808594 -89.042969 28.808594 -89.230469 28.808594 -89.789062 L 28.996094 -89.789062 Z M 28.621094 -86.984375 L 28.433594 -86.609375 L 28.433594 -86.984375 C 28.246094 -87.171875 28.246094 -87.359375 28.246094 -87.359375 L 28.621094 -87.359375 Z M 28.246094 -85.300781 C 28.058594 -85.300781 28.058594 -85.300781 28.058594 -85.488281 C 28.058594 -85.675781 28.058594 -85.675781 28.246094 -85.675781 C 28.433594 -85.675781 28.433594 -85.675781 28.433594 -85.488281 C 28.433594 -85.300781 28.433594 -85.300781 28.246094 -85.300781 Z M 28.246094 -84.738281 C 28.246094 -84.554688 28.246094 -84.554688 28.058594 -84.554688 C 28.246094 -84.554688 28.246094 -84.554688 28.246094 -84.367188 C 28.246094 -84.179688 28.246094 -84.179688 28.058594 -84.179688 C 27.871094 -84.179688 27.871094 -84.179688 27.871094 -84.367188 C 27.871094 -84.554688 27.871094 -84.554688 28.058594 -84.554688 C 27.871094 -84.554688 27.871094 -84.554688 27.871094 -84.738281 C 27.871094 -84.925781 27.871094 -84.925781 28.058594 -84.925781 C 27.871094 -84.925781 27.871094 -84.925781 27.871094 -85.113281 C 27.871094 -85.300781 27.871094 -85.300781 28.058594 -85.300781 C 28.246094 -85.300781 28.246094 -85.300781 28.246094 -85.113281 C 28.246094 -84.925781 28.246094 -84.925781 28.058594 -84.925781 C 28.246094 -84.925781 28.246094 -84.925781 28.246094 -84.738281 Z M 27.871094 -83.804688 L 28.058594 -83.992188 C 28.058594 -83.804688 28.058594 -83.804688 27.871094 -83.804688 Z M 27.683594 -82.683594 L 27.871094 -82.871094 C 27.871094 -82.683594 27.871094 -82.683594 27.683594 -82.683594 Z M 27.5 -81.933594 C 27.3125 -81.933594 27.3125 -81.933594 27.3125 -82.121094 C 27.3125 -82.308594 27.3125 -82.308594 27.5 -82.308594 C 27.683594 -82.308594 27.683594 -82.308594 27.683594 -82.121094 C 27.683594 -81.933594 27.683594 -81.933594 27.5 -81.933594 Z M 27.5 -81.371094 C 27.3125 -81.371094 27.3125 -81.371094 27.3125 -81.558594 C 27.3125 -81.746094 27.3125 -81.746094 27.5 -81.746094 C 27.683594 -81.746094 27.683594 -81.746094 27.683594 -81.558594 C 27.683594 -81.371094 27.683594 -81.371094 27.5 -81.371094 Z M 27.3125 -80.625 L 27.5 -80.8125 C 27.5 -80.625 27.5 -80.625 27.3125 -80.625 Z M 27.125 -79.316406 L 26.9375 -79.316406 C 26.9375 -79.875 26.9375 -80.25 27.125 -80.4375 Z M 26.9375 -78.753906 C 26.75 -78.753906 26.75 -78.753906 26.75 -78.941406 C 26.75 -79.128906 26.75 -79.128906 26.9375 -79.128906 C 27.125 -79.128906 27.125 -79.128906 27.125 -78.941406 C 27.125 -78.753906 27.125 -78.753906 26.9375 -78.753906 Z M 26.75 -78.566406 L 26.75 -78.753906 L 26.9375 -78.566406 Z M 26.5625 -76.882812 C 26.375 -76.882812 26.375 -77.070312 26.375 -77.257812 C 26.375 -77.445312 26.375 -77.445312 26.5625 -77.445312 C 26.75 -77.445312 26.75 -77.445312 26.75 -77.257812 C 26.75 -77.070312 26.75 -76.882812 26.5625 -76.882812 Z M 26.375 -75.761719 C 26.1875 -75.761719 26.1875 -75.761719 26.1875 -75.949219 C 26.1875 -76.136719 26.1875 -76.136719 26.375 -76.136719 C 26.5625 -76.136719 26.5625 -76.136719 26.5625 -75.949219 C 26.5625 -75.761719 26.5625 -75.761719 26.375 -75.761719 Z M 26 -74.824219 C 25.816406 -74.824219 25.816406 -74.824219 25.816406 -75.011719 C 25.816406 -75.199219 25.816406 -75.199219 26 -75.199219 C 26.1875 -75.199219 26.1875 -75.199219 26.1875 -75.011719 C 26.1875 -74.824219 26.1875 -74.824219 26 -74.824219 Z M 25.816406 -74.078125 L 26 -73.890625 C 25.816406 -73.890625 25.816406 -73.890625 25.816406 -74.078125 Z M 25.816406 -73.328125 L 26 -73.703125 C 26 -73.515625 26 -73.515625 25.816406 -73.328125 Z M 25.628906 -72.582031 L 25.816406 -72.769531 C 25.816406 -72.582031 25.816406 -72.582031 25.628906 -72.582031 Z M 25.253906 -71.832031 L 25.441406 -71.644531 L 25.253906 -71.644531 Z M 25.441406 -71.085938 L 25.628906 -71.269531 C 25.628906 -71.085938 25.628906 -71.085938 25.441406 -71.085938 Z M 25.253906 -70.710938 C 25.066406 -70.710938 25.066406 -70.710938 25.066406 -70.898438 C 25.066406 -71.085938 25.066406 -71.085938 25.253906 -71.085938 C 25.441406 -71.085938 25.441406 -71.085938 25.441406 -70.898438 C 25.441406 -70.710938 25.441406 -70.710938 25.253906 -70.710938 Z M 25.253906 -69.960938 C 25.253906 -69.585938 25.253906 -69.214844 25.066406 -68.839844 C 24.878906 -68.464844 24.878906 -68.089844 24.878906 -67.71875 L 24.503906 -67.71875 C 24.503906 -68.839844 24.691406 -69.773438 25.066406 -70.710938 C 25.066406 -70.523438 25.066406 -70.523438 25.253906 -70.335938 Z M 24.503906 -66.78125 C 24.316406 -66.78125 24.316406 -66.96875 24.316406 -67.15625 C 24.316406 -67.34375 24.316406 -67.34375 24.503906 -67.34375 C 24.691406 -67.34375 24.691406 -67.34375 24.691406 -67.15625 C 24.691406 -66.96875 24.691406 -66.78125 24.503906 -66.78125 Z M 24.316406 -65.285156 L 24.132812 -64.910156 L 23.945312 -65.660156 L 24.316406 -65.847656 Z M 23.945312 -64.351562 L 23.945312 -63.976562 C 23.757812 -63.976562 23.757812 -64.164062 23.757812 -64.351562 Z M 23.570312 -63.976562 C 23.757812 -63.976562 23.757812 -63.976562 23.757812 -63.789062 C 23.757812 -63.601562 23.757812 -63.601562 23.570312 -63.601562 C 23.382812 -63.601562 23.382812 -63.601562 23.382812 -63.789062 C 23.382812 -63.976562 23.382812 -63.976562 23.570312 -63.976562 Z M 23.945312 -63.414062 C 23.757812 -63.414062 23.757812 -63.414062 23.757812 -63.601562 C 23.757812 -63.789062 23.757812 -63.789062 23.945312 -63.789062 C 24.132812 -63.789062 24.132812 -63.789062 24.132812 -63.601562 C 24.132812 -63.414062 24.132812 -63.414062 23.945312 -63.414062 Z M 23.757812 -63.039062 C 23.570312 -63.039062 23.570312 -63.039062 23.570312 -63.226562 C 23.570312 -63.414062 23.570312 -63.414062 23.757812 -63.414062 C 23.945312 -63.414062 23.945312 -63.414062 23.945312 -63.226562 C 23.945312 -63.039062 23.945312 -63.039062 23.757812 -63.039062 Z M 23.570312 -61.917969 L 23.382812 -62.105469 C 23.382812 -62.292969 23.382812 -62.292969 23.570312 -62.480469 L 23.570312 -62.851562 L 23.757812 -62.480469 Z M 23.195312 -60.234375 L 23.007812 -60.421875 C 23.007812 -60.609375 23.007812 -60.796875 23.195312 -60.984375 C 23.195312 -61.355469 23.382812 -61.542969 23.570312 -61.542969 Z M 23.007812 -59.484375 L 23.195312 -59.671875 C 23.195312 -59.484375 23.195312 -59.484375 23.007812 -59.484375 Z M 22.820312 -58.550781 C 22.820312 -58.363281 22.820312 -58.363281 22.632812 -58.363281 C 22.449219 -58.363281 22.449219 -58.363281 22.449219 -58.550781 C 22.449219 -58.738281 22.449219 -58.738281 22.632812 -58.738281 C 22.632812 -58.925781 22.632812 -58.925781 22.820312 -58.925781 C 23.007812 -58.925781 23.007812 -58.925781 23.007812 -58.738281 C 23.007812 -58.550781 23.007812 -58.550781 22.820312 -58.550781 Z M 22.632812 -58.738281 C 22.632812 -58.550781 22.632812 -58.550781 22.820312 -58.550781 C 22.820312 -58.738281 22.820312 -58.738281 22.632812 -58.738281 Z M 22.632812 -57.429688 C 22.449219 -57.429688 22.449219 -57.429688 22.449219 -57.617188 C 22.449219 -57.800781 22.449219 -57.800781 22.632812 -57.800781 C 22.820312 -57.800781 22.820312 -57.800781 22.820312 -57.617188 C 22.820312 -57.429688 22.820312 -57.429688 22.632812 -57.429688 Z M 22.261719 -56.117188 L 22.261719 -56.492188 C 22.261719 -56.867188 22.261719 -57.242188 22.449219 -57.429688 C 22.632812 -57.429688 22.632812 -57.242188 22.632812 -57.054688 C 22.632812 -56.867188 22.449219 -56.679688 22.261719 -56.117188 Z M 22.074219 -55.183594 L 22.261719 -55.371094 C 22.261719 -55.183594 22.261719 -55.183594 22.074219 -55.183594 Z M 21.886719 -54.25 C 21.699219 -54.25 21.699219 -54.433594 21.699219 -54.621094 C 21.699219 -54.808594 21.699219 -54.808594 21.886719 -54.808594 C 22.074219 -54.808594 22.074219 -54.808594 22.074219 -54.621094 C 22.074219 -54.433594 22.074219 -54.25 21.886719 -54.25 Z M 21.886719 -53.6875 L 22.074219 -53.875 C 22.074219 -53.6875 22.074219 -53.6875 21.886719 -53.6875 Z M 21.699219 -53.125 C 21.511719 -53.125 21.511719 -53.3125 21.511719 -53.5 L 21.699219 -53.5 Z M 21.511719 -52.566406 C 21.324219 -52.566406 21.324219 -52.566406 21.324219 -52.75 C 21.324219 -52.9375 21.324219 -52.9375 21.511719 -52.9375 C 21.699219 -52.9375 21.699219 -52.9375 21.699219 -52.75 C 21.699219 -52.566406 21.699219 -52.566406 21.511719 -52.566406 Z M 21.136719 -52.191406 C 20.949219 -52.191406 20.949219 -52.191406 20.949219 -52.378906 C 20.949219 -52.566406 20.949219 -52.566406 21.136719 -52.566406 C 21.324219 -52.566406 21.324219 -52.566406 21.324219 -52.378906 C 21.324219 -52.191406 21.324219 -52.191406 21.136719 -52.191406 Z M 21.324219 -51.441406 L 21.136719 -51.253906 C 21.136719 -51.628906 21.136719 -51.816406 21.324219 -51.816406 Z M 20.765625 -50.132812 L 21.136719 -50.507812 C 21.136719 -50.320312 20.949219 -50.132812 20.765625 -50.132812 Z M 20.949219 -49.386719 L 20.765625 -49.011719 L 20.765625 -49.386719 C 20.765625 -49.757812 20.765625 -49.757812 20.949219 -49.757812 Z M 20.578125 -47.328125 C 20.578125 -46.953125 20.390625 -46.765625 20.203125 -46.765625 L 20.203125 -47.515625 C 20.203125 -47.703125 20.203125 -47.886719 20.390625 -47.886719 L 20.578125 -47.886719 Z M 20.015625 -45.644531 L 20.015625 -46.019531 C 20.015625 -46.390625 20.015625 -46.390625 20.203125 -46.390625 L 20.390625 -46.203125 C 20.390625 -46.019531 20.203125 -45.832031 20.015625 -45.644531 Z M 19.828125 -44.707031 L 20.015625 -44.894531 C 20.015625 -44.707031 20.015625 -44.707031 19.828125 -44.707031 Z M 19.640625 -44.335938 L 19.828125 -44.335938 C 19.828125 -43.960938 19.828125 -43.773438 19.640625 -43.773438 Z M 19.828125 -43.210938 C 19.828125 -43.023438 19.828125 -43.023438 19.640625 -43.023438 C 19.640625 -42.835938 19.640625 -42.835938 19.453125 -42.835938 C 19.265625 -42.835938 19.265625 -42.835938 19.265625 -43.023438 C 19.265625 -43.210938 19.265625 -43.210938 19.453125 -43.210938 C 19.453125 -43.398438 19.453125 -43.398438 19.640625 -43.398438 C 19.640625 -43.585938 19.640625 -43.585938 19.828125 -43.585938 C 20.015625 -43.585938 20.015625 -43.585938 20.015625 -43.398438 C 20.015625 -43.210938 20.015625 -43.210938 19.828125 -43.210938 Z M 19.640625 -43.398438 C 19.640625 -43.210938 19.640625 -43.210938 19.828125 -43.210938 C 19.828125 -43.398438 19.828125 -43.398438 19.640625 -43.398438 Z M 19.453125 -43.210938 C 19.453125 -43.023438 19.453125 -43.023438 19.640625 -43.023438 C 19.640625 -43.210938 19.640625 -43.210938 19.453125 -43.210938 Z M 19.640625 -42.464844 C 19.453125 -42.464844 19.453125 -42.464844 19.453125 -42.652344 C 19.453125 -42.835938 19.453125 -42.835938 19.640625 -42.835938 C 19.828125 -42.835938 19.828125 -42.835938 19.828125 -42.652344 C 19.828125 -42.464844 19.828125 -42.464844 19.640625 -42.464844 Z M 19.453125 -42.277344 L 19.265625 -42.277344 L 19.453125 -42.464844 Z M 19.265625 -40.96875 C 19.082031 -40.59375 18.894531 -40.21875 19.082031 -39.84375 C 18.894531 -40.03125 18.894531 -40.21875 18.894531 -40.78125 C 18.894531 -40.96875 18.894531 -40.96875 19.082031 -41.152344 L 19.082031 -41.527344 C 19.082031 -41.714844 19.082031 -41.714844 19.265625 -41.902344 L 19.453125 -41.902344 C 19.453125 -41.527344 19.453125 -41.152344 19.265625 -40.96875 Z M 18.894531 -39.097656 L 18.707031 -38.722656 L 18.519531 -38.722656 C 18.519531 -39.285156 18.707031 -39.46875 18.894531 -39.65625 Z M 18.519531 -37.972656 L 18.707031 -38.160156 C 18.707031 -37.972656 18.707031 -37.972656 18.519531 -37.972656 Z M 18.519531 -37.414062 C 18.332031 -37.414062 18.332031 -37.414062 18.332031 -37.601562 C 18.332031 -37.785156 18.332031 -37.785156 18.519531 -37.785156 C 18.707031 -37.785156 18.707031 -37.785156 18.707031 -37.601562 C 18.707031 -37.414062 18.707031 -37.414062 18.519531 -37.414062 Z M 18.144531 -36.476562 C 17.957031 -36.476562 17.957031 -36.476562 17.957031 -36.664062 C 17.957031 -36.851562 17.957031 -36.851562 18.144531 -36.851562 C 18.332031 -36.851562 18.332031 -36.851562 18.332031 -36.664062 C 18.332031 -36.476562 18.332031 -36.476562 18.144531 -36.476562 Z M 18.144531 -35.730469 L 17.957031 -35.730469 L 18.144531 -36.101562 Z M 17.582031 -34.605469 L 17.769531 -35.355469 C 17.957031 -35.167969 17.957031 -34.980469 17.957031 -34.605469 Z M 17.769531 -34.046875 L 17.582031 -34.046875 L 17.769531 -34.234375 Z M 17.582031 -33.296875 L 17.398438 -32.921875 L 17.398438 -33.671875 L 17.582031 -33.671875 Z M 17.210938 -31.800781 L 17.023438 -31.800781 L 17.210938 -31.988281 Z M 17.023438 -31.050781 C 17.023438 -30.492188 16.835938 -30.117188 16.648438 -29.742188 L 16.648438 -30.117188 L 17.023438 -31.425781 Z M 16.460938 -28.996094 C 16.273438 -28.996094 16.273438 -28.996094 16.273438 -29.183594 C 16.273438 -29.367188 16.273438 -29.367188 16.460938 -29.367188 C 16.648438 -29.367188 16.648438 -29.367188 16.648438 -29.183594 C 16.648438 -28.996094 16.648438 -28.996094 16.460938 -28.996094 Z M 16.460938 -28.433594 C 16.273438 -28.433594 16.273438 -28.433594 16.273438 -28.621094 C 16.273438 -28.808594 16.273438 -28.808594 16.460938 -28.808594 C 16.648438 -28.808594 16.648438 -28.808594 16.648438 -28.621094 C 16.648438 -28.433594 16.648438 -28.433594 16.460938 -28.433594 Z M 16.085938 -28.246094 C 16.273438 -28.246094 16.273438 -28.246094 16.273438 -28.058594 C 16.273438 -27.871094 16.273438 -27.871094 16.085938 -27.871094 C 15.902344 -27.871094 15.902344 -27.871094 15.902344 -28.058594 C 15.902344 -28.246094 15.902344 -28.246094 16.085938 -28.246094 Z M 16.273438 -27.3125 C 16.085938 -27.3125 16.085938 -27.3125 16.085938 -27.5 C 16.085938 -27.683594 16.085938 -27.683594 16.273438 -27.683594 C 16.460938 -27.683594 16.460938 -27.683594 16.460938 -27.5 C 16.460938 -27.3125 16.460938 -27.3125 16.273438 -27.3125 Z M 16.085938 -27.125 L 16.273438 -26.9375 C 16.085938 -26.9375 16.085938 -26.9375 16.085938 -27.125 Z M 15.902344 -25.816406 C 15.714844 -25.816406 15.714844 -25.816406 15.714844 -26 C 15.714844 -26.1875 15.714844 -26.1875 15.902344 -26.1875 C 16.085938 -26.1875 16.085938 -26.1875 16.085938 -26 C 16.085938 -25.816406 16.085938 -25.816406 15.902344 -25.816406 Z M 15.714844 -25.253906 C 15.527344 -25.253906 15.527344 -25.253906 15.527344 -25.441406 C 15.527344 -25.628906 15.527344 -25.628906 15.714844 -25.628906 C 15.902344 -25.628906 15.902344 -25.628906 15.902344 -25.441406 C 15.902344 -25.253906 15.902344 -25.253906 15.714844 -25.253906 Z M 15.714844 -24.691406 C 15.714844 -24.503906 15.714844 -24.503906 15.527344 -24.503906 C 15.339844 -24.503906 15.339844 -24.503906 15.339844 -24.691406 C 15.339844 -24.878906 15.339844 -24.878906 15.527344 -24.878906 C 15.527344 -25.066406 15.527344 -25.066406 15.714844 -25.066406 C 15.902344 -25.066406 15.902344 -25.066406 15.902344 -24.878906 C 15.902344 -24.691406 15.902344 -24.691406 15.714844 -24.691406 Z M 15.527344 -24.878906 C 15.527344 -24.691406 15.527344 -24.691406 15.714844 -24.691406 C 15.714844 -24.878906 15.714844 -24.878906 15.527344 -24.878906 Z M 15.339844 -24.316406 L 15.527344 -24.132812 C 15.339844 -24.132812 15.339844 -24.132812 15.339844 -24.316406 Z M 15.527344 -23.195312 L 15.339844 -23.195312 L 15.339844 -23.945312 L 15.527344 -23.945312 Z M 14.964844 -22.074219 C 14.964844 -22.449219 14.964844 -22.632812 15.152344 -22.820312 C 15.152344 -22.261719 15.152344 -22.074219 14.964844 -22.074219 Z M 14.964844 -21.136719 C 14.964844 -20.203125 14.777344 -19.453125 14.21875 -18.894531 C 14.21875 -19.640625 14.777344 -21.136719 14.964844 -21.699219 Z M 14.21875 -17.398438 L 14.402344 -17.582031 C 14.402344 -17.398438 14.402344 -17.398438 14.21875 -17.398438 Z M 13.84375 -16.460938 C 13.84375 -16.835938 13.84375 -17.023438 14.03125 -17.023438 C 14.03125 -16.648438 14.03125 -16.460938 13.84375 -16.460938 Z M 13.84375 -15.714844 L 13.65625 -16.085938 L 13.84375 -16.085938 Z M 13.65625 -14.589844 L 13.46875 -14.402344 C 13.46875 -14.777344 13.46875 -14.964844 13.65625 -14.964844 Z M 13.28125 -13.65625 C 13.28125 -13.65625 13.28125 -13.65625 13.09375 -13.46875 L 13.09375 -13.65625 L 13.28125 -14.21875 C 13.46875 -14.21875 13.46875 -14.03125 13.46875 -13.84375 C 13.46875 -13.65625 13.46875 -13.65625 13.28125 -13.65625 Z M 13.09375 -11.785156 C 12.90625 -11.785156 12.90625 -11.785156 12.90625 -11.972656 C 12.90625 -12.160156 12.90625 -12.160156 13.09375 -12.160156 C 13.28125 -12.160156 13.28125 -12.160156 13.28125 -11.972656 C 13.28125 -11.785156 13.28125 -11.785156 13.09375 -11.785156 Z M 12.90625 -11.410156 C 12.71875 -11.410156 12.71875 -11.410156 12.71875 -11.597656 C 12.71875 -11.785156 12.71875 -11.785156 12.90625 -11.785156 C 13.09375 -11.785156 13.09375 -11.785156 13.09375 -11.597656 C 13.09375 -11.410156 13.09375 -11.410156 12.90625 -11.410156 Z M 12.90625 -10.664062 L 12.71875 -10.476562 L 12.71875 -11.035156 L 12.90625 -11.035156 Z M 12.535156 -10.101562 L 12.535156 -10.289062 L 12.71875 -10.101562 Z M 12.71875 -9.351562 C 12.71875 -9.167969 12.71875 -9.167969 12.535156 -9.167969 C 12.535156 -8.980469 12.535156 -8.980469 12.347656 -8.980469 C 12.535156 -8.980469 12.535156 -8.980469 12.535156 -8.792969 C 12.535156 -8.605469 12.535156 -8.605469 12.347656 -8.605469 C 12.160156 -8.605469 12.160156 -8.605469 12.160156 -8.792969 C 12.160156 -8.980469 12.160156 -8.980469 12.347656 -8.980469 C 12.160156 -8.980469 12.160156 -8.980469 12.160156 -9.167969 C 12.160156 -9.351562 12.160156 -9.351562 12.347656 -9.351562 C 12.347656 -9.539062 12.347656 -9.539062 12.535156 -9.539062 C 12.347656 -9.539062 12.347656 -9.539062 12.347656 -9.726562 C 12.347656 -9.914062 12.347656 -9.914062 12.535156 -9.914062 C 12.71875 -9.914062 12.71875 -9.914062 12.71875 -9.726562 C 12.71875 -9.539062 12.71875 -9.539062 12.535156 -9.539062 C 12.71875 -9.539062 12.71875 -9.539062 12.71875 -9.351562 Z M 12.347656 -9.351562 C 12.347656 -9.167969 12.347656 -9.167969 12.535156 -9.167969 C 12.535156 -9.351562 12.535156 -9.351562 12.347656 -9.351562 Z M 12.347656 -8.042969 C 12.160156 -8.042969 12.160156 -8.042969 12.160156 -8.230469 C 12.160156 -8.417969 12.160156 -8.417969 12.347656 -8.417969 C 12.535156 -8.417969 12.535156 -8.417969 12.535156 -8.230469 C 12.535156 -8.042969 12.535156 -8.042969 12.347656 -8.042969 Z M 12.160156 -7.484375 L 12.347656 -7.667969 C 12.347656 -7.484375 12.347656 -7.484375 12.160156 -7.484375 Z M 12.160156 -6.921875 C 11.972656 -6.921875 11.972656 -6.921875 11.972656 -7.109375 C 11.972656 -7.296875 11.972656 -7.296875 12.160156 -7.296875 C 12.347656 -7.296875 12.347656 -7.296875 12.347656 -7.109375 C 12.347656 -6.921875 12.347656 -6.921875 12.160156 -6.921875 Z M 11.972656 -6.359375 L 12.160156 -6.546875 C 12.160156 -6.359375 12.160156 -6.359375 11.972656 -6.359375 Z M 11.785156 -4.863281 L 11.597656 -5.425781 C 11.597656 -5.613281 11.597656 -5.613281 11.785156 -5.800781 L 11.972656 -5.984375 Z M 11.410156 -3.554688 L 11.410156 -4.488281 L 11.597656 -4.488281 C 11.597656 -4.117188 11.597656 -3.742188 11.410156 -3.554688 Z M 11.410156 -2.617188 C 11.222656 -2.617188 11.222656 -2.617188 11.222656 -2.804688 C 11.222656 -2.992188 11.222656 -2.992188 11.410156 -2.992188 C 11.597656 -2.992188 11.597656 -2.992188 11.597656 -2.804688 C 11.597656 -2.617188 11.597656 -2.617188 11.410156 -2.617188 Z M 11.410156 -2.617188 "/></g></g></g><g fill="#464a4e" fill-opacity="1"><g transform="translate(52.014988, 147.257584)"><g><path d="M 39.285156 -136.183594 C 39.097656 -136.183594 39.097656 -136.183594 38.910156 -135.996094 L 38.535156 -135.808594 C 38.160156 -135.808594 37.972656 -135.996094 37.972656 -136.371094 C 37.972656 -136.742188 37.785156 -136.929688 37.414062 -136.929688 C 36.851562 -136.929688 36.664062 -136.742188 36.664062 -136.183594 L 9.914062 -9.351562 C 9.351562 -7.667969 9.351562 -3.929688 9.351562 -2.246094 C 9.351562 -2.058594 9.351562 -1.871094 9.539062 -1.683594 L 9.539062 -0.933594 C 9.726562 -0.933594 9.726562 -0.933594 9.914062 -0.75 C 10.101562 -0.5625 10.101562 -0.5625 10.289062 -0.5625 L 10.851562 -0.75 C 11.035156 -0.75 11.222656 -0.75 11.410156 -0.933594 L 11.972656 -0.933594 L 12.535156 -2.617188 L 39.46875 -129.074219 C 39.84375 -130.757812 40.03125 -132.628906 40.03125 -134.3125 C 40.03125 -134.871094 40.03125 -136.183594 39.285156 -136.183594 Z M 38.160156 -133.1875 L 38.347656 -133.1875 L 38.347656 -132.816406 L 38.160156 -132.816406 Z M 38.535156 -132.066406 C 38.535156 -131.878906 38.535156 -131.878906 38.347656 -131.878906 C 38.347656 -131.691406 38.347656 -131.691406 38.160156 -131.691406 C 37.972656 -131.691406 37.972656 -131.691406 37.972656 -131.878906 C 37.972656 -132.066406 37.972656 -132.066406 38.160156 -132.066406 C 38.160156 -132.253906 38.160156 -132.253906 38.347656 -132.253906 C 38.160156 -132.253906 38.160156 -132.253906 38.160156 -132.441406 C 38.160156 -132.628906 38.160156 -132.628906 38.347656 -132.628906 C 38.535156 -132.628906 38.535156 -132.628906 38.535156 -132.441406 C 38.535156 -132.253906 38.535156 -132.253906 38.347656 -132.253906 C 38.535156 -132.253906 38.535156 -132.253906 38.535156 -132.066406 Z M 38.160156 -132.066406 C 38.160156 -131.878906 38.160156 -131.878906 38.347656 -131.878906 C 38.347656 -132.066406 38.347656 -132.066406 38.160156 -132.066406 Z M 38.160156 -129.820312 C 37.972656 -129.820312 37.972656 -129.820312 37.972656 -130.007812 C 37.972656 -130.195312 37.972656 -130.195312 38.160156 -130.195312 C 38.347656 -130.195312 38.347656 -130.195312 38.347656 -130.007812 C 38.347656 -129.820312 38.347656 -129.820312 38.160156 -129.820312 Z M 37.601562 -128.511719 C 37.414062 -128.511719 37.414062 -128.511719 37.414062 -128.699219 C 37.414062 -128.886719 37.414062 -128.886719 37.601562 -128.886719 C 37.785156 -128.886719 37.785156 -128.886719 37.785156 -128.699219 C 37.785156 -128.511719 37.785156 -128.511719 37.601562 -128.511719 Z M 37.226562 -126.082031 C 37.039062 -126.082031 37.039062 -126.082031 37.039062 -126.269531 C 37.039062 -126.453125 37.039062 -126.453125 37.226562 -126.453125 C 37.414062 -126.453125 37.414062 -126.453125 37.414062 -126.269531 C 37.414062 -126.082031 37.414062 -126.082031 37.226562 -126.082031 Z M 37.226562 -125.332031 C 37.226562 -125.144531 37.226562 -125.144531 37.039062 -125.144531 C 36.851562 -125.144531 36.851562 -125.144531 36.851562 -125.332031 C 36.851562 -125.519531 36.851562 -125.519531 37.039062 -125.519531 C 36.851562 -125.519531 36.851562 -125.519531 36.851562 -125.707031 C 36.851562 -125.894531 36.851562 -125.894531 37.039062 -125.894531 C 37.226562 -125.894531 37.226562 -125.894531 37.226562 -125.707031 C 37.226562 -125.519531 37.226562 -125.519531 37.039062 -125.519531 C 37.226562 -125.519531 37.226562 -125.519531 37.226562 -125.332031 Z M 36.851562 -124.398438 C 36.664062 -124.398438 36.664062 -124.398438 36.664062 -124.585938 C 36.664062 -124.769531 36.664062 -124.769531 36.851562 -124.769531 C 37.039062 -124.769531 37.039062 -124.769531 37.039062 -124.585938 C 37.039062 -124.398438 37.039062 -124.398438 36.851562 -124.398438 Z M 36.664062 -123.273438 C 36.476562 -123.273438 36.476562 -123.273438 36.476562 -123.460938 C 36.476562 -123.648438 36.476562 -123.648438 36.664062 -123.648438 C 36.851562 -123.648438 36.851562 -123.648438 36.851562 -123.460938 C 36.851562 -123.273438 36.851562 -123.273438 36.664062 -123.273438 Z M 36.476562 -122.527344 C 36.289062 -122.527344 36.289062 -122.527344 36.289062 -122.714844 C 36.289062 -122.902344 36.289062 -122.902344 36.476562 -122.902344 C 36.664062 -122.902344 36.664062 -122.902344 36.664062 -122.714844 C 36.664062 -122.527344 36.664062 -122.527344 36.476562 -122.527344 Z M 35.730469 -119.347656 C 35.542969 -119.347656 35.542969 -119.347656 35.542969 -119.535156 C 35.542969 -119.722656 35.542969 -119.722656 35.730469 -119.722656 C 35.917969 -119.722656 35.917969 -119.722656 35.917969 -119.535156 C 35.917969 -119.347656 35.917969 -119.347656 35.730469 -119.347656 Z M 35.542969 -118.785156 L 35.730469 -118.972656 C 35.730469 -118.785156 35.730469 -118.785156 35.542969 -118.785156 Z M 35.542969 -118.222656 C 35.355469 -118.222656 35.355469 -118.222656 35.355469 -118.410156 C 35.355469 -118.597656 35.355469 -118.597656 35.542969 -118.597656 C 35.730469 -118.597656 35.730469 -118.597656 35.730469 -118.410156 C 35.730469 -118.222656 35.730469 -118.222656 35.542969 -118.222656 Z M 35.167969 -116.726562 C 34.980469 -116.726562 34.980469 -116.726562 34.980469 -116.914062 C 34.980469 -117.101562 34.980469 -117.101562 35.167969 -117.101562 C 35.355469 -117.101562 35.355469 -117.101562 35.355469 -116.914062 C 35.355469 -116.726562 35.355469 -116.726562 35.167969 -116.726562 Z M 34.980469 -116.355469 C 34.792969 -116.355469 34.792969 -116.355469 34.792969 -116.539062 C 34.792969 -116.726562 34.792969 -116.726562 34.980469 -116.726562 C 35.167969 -116.726562 35.167969 -116.726562 35.167969 -116.539062 C 35.167969 -116.355469 35.167969 -116.355469 34.980469 -116.355469 Z M 34.980469 -115.230469 C 34.792969 -115.230469 34.792969 -115.417969 34.792969 -115.605469 L 34.980469 -115.605469 Z M 34.792969 -114.855469 C 34.605469 -114.855469 34.605469 -114.855469 34.605469 -115.042969 C 34.605469 -115.230469 34.605469 -115.230469 34.792969 -115.230469 C 34.980469 -115.230469 34.980469 -115.230469 34.980469 -115.042969 C 34.980469 -114.855469 34.980469 -114.855469 34.792969 -114.855469 Z M 34.605469 -113.734375 L 34.417969 -114.109375 C 34.417969 -114.296875 34.417969 -114.296875 34.605469 -114.484375 L 34.605469 -114.855469 L 34.792969 -114.671875 Z M 33.859375 -112.613281 C 33.859375 -112.988281 34.046875 -113.171875 34.417969 -113.359375 C 34.417969 -112.800781 34.234375 -112.613281 33.859375 -112.613281 Z M 34.046875 -111.488281 L 33.859375 -111.675781 L 34.046875 -111.675781 Z M 34.046875 -110.742188 C 34.046875 -110.554688 34.046875 -110.554688 33.859375 -110.554688 C 33.671875 -110.554688 33.671875 -110.554688 33.671875 -110.742188 C 33.671875 -110.929688 33.671875 -110.929688 33.859375 -110.929688 C 33.671875 -110.929688 33.671875 -110.929688 33.671875 -111.117188 C 33.671875 -111.304688 33.671875 -111.304688 33.859375 -111.304688 C 34.046875 -111.304688 34.046875 -111.304688 34.046875 -111.117188 C 34.046875 -110.929688 34.046875 -110.929688 33.859375 -110.929688 C 34.046875 -110.929688 34.046875 -110.929688 34.046875 -110.742188 Z M 33.484375 -109.621094 L 33.484375 -109.992188 L 33.671875 -109.058594 C 33.484375 -109.058594 33.484375 -109.246094 33.484375 -109.621094 Z M 33.296875 -108.683594 L 33.296875 -108.871094 L 33.484375 -108.683594 Z M 33.296875 -108.121094 C 33.109375 -108.121094 33.109375 -108.121094 33.109375 -108.308594 C 33.109375 -108.496094 33.109375 -108.496094 33.296875 -108.496094 C 33.484375 -108.496094 33.484375 -108.496094 33.484375 -108.308594 C 33.484375 -108.121094 33.484375 -108.121094 33.296875 -108.121094 Z M 33.109375 -107.5625 L 33.296875 -107.75 C 33.296875 -107.5625 33.296875 -107.5625 33.109375 -107.5625 Z M 32.921875 -107 C 32.734375 -107 32.734375 -107 32.734375 -107.1875 C 32.734375 -107.375 32.734375 -107.375 32.921875 -107.375 C 33.109375 -107.375 33.109375 -107.375 33.109375 -107.1875 C 33.109375 -107 33.109375 -107 32.921875 -107 Z M 32.550781 -105.878906 C 32.363281 -105.878906 32.363281 -105.878906 32.363281 -106.066406 C 32.363281 -106.253906 32.363281 -106.253906 32.550781 -106.253906 C 32.734375 -106.253906 32.734375 -106.253906 32.734375 -106.066406 C 32.734375 -105.878906 32.734375 -105.878906 32.550781 -105.878906 Z M 32.550781 -105.503906 L 32.734375 -105.316406 C 32.550781 -105.316406 32.550781 -105.316406 32.550781 -105.503906 Z M 32.363281 -104.382812 C 32.175781 -104.382812 32.175781 -104.382812 32.175781 -104.570312 C 32.175781 -104.753906 32.175781 -104.753906 32.363281 -104.753906 C 32.550781 -104.753906 32.550781 -104.753906 32.550781 -104.570312 C 32.550781 -104.382812 32.550781 -104.382812 32.363281 -104.382812 Z M 32.175781 -104.007812 L 32.363281 -104.195312 C 32.363281 -104.007812 32.363281 -104.007812 32.175781 -104.007812 Z M 31.613281 -101.761719 C 31.613281 -102.136719 31.613281 -102.324219 31.800781 -102.511719 C 31.800781 -101.949219 31.800781 -101.761719 31.613281 -101.761719 Z M 31.613281 -101.015625 C 31.613281 -100.828125 31.613281 -100.828125 31.425781 -100.828125 L 31.613281 -101.015625 C 31.425781 -101.015625 31.425781 -101.015625 31.425781 -101.203125 C 31.425781 -101.386719 31.425781 -101.386719 31.613281 -101.386719 C 31.800781 -101.386719 31.800781 -101.386719 31.800781 -101.203125 C 31.800781 -101.015625 31.800781 -101.015625 31.613281 -101.015625 Z M 31.238281 -100.453125 C 31.050781 -100.453125 31.050781 -100.453125 31.050781 -100.640625 C 31.050781 -100.828125 31.050781 -100.828125 31.238281 -100.828125 C 31.425781 -100.828125 31.425781 -100.828125 31.425781 -100.640625 C 31.425781 -100.453125 31.425781 -100.453125 31.238281 -100.453125 Z M 31.050781 -100.453125 C 31.238281 -100.453125 31.238281 -100.265625 31.238281 -99.890625 Z M 31.238281 -98.957031 C 31.050781 -98.957031 30.867188 -99.144531 30.867188 -99.332031 C 30.867188 -99.519531 30.867188 -99.703125 31.050781 -99.703125 L 31.425781 -99.519531 L 31.050781 -99.332031 Z M 30.867188 -98.582031 L 31.050781 -98.394531 C 30.867188 -98.394531 30.867188 -98.394531 30.867188 -98.582031 Z M 30.867188 -98.019531 C 30.679688 -98.019531 30.679688 -98.019531 30.679688 -98.207031 C 30.679688 -98.394531 30.679688 -98.394531 30.867188 -98.394531 C 31.050781 -98.394531 31.050781 -98.394531 31.050781 -98.207031 C 31.050781 -98.019531 31.050781 -98.019531 30.867188 -98.019531 Z M 30.679688 -97.648438 L 30.867188 -97.835938 C 30.867188 -97.648438 30.867188 -97.648438 30.679688 -97.648438 Z M 30.679688 -96.523438 C 30.492188 -96.523438 30.492188 -96.523438 30.492188 -96.710938 C 30.492188 -96.898438 30.492188 -96.898438 30.679688 -96.898438 C 30.867188 -96.898438 30.867188 -96.898438 30.867188 -96.710938 C 30.867188 -96.523438 30.867188 -96.523438 30.679688 -96.523438 Z M 30.492188 -95.964844 C 30.304688 -95.964844 30.304688 -95.964844 30.304688 -96.152344 C 30.304688 -96.335938 30.304688 -96.335938 30.492188 -96.335938 C 30.679688 -96.335938 30.679688 -96.335938 30.679688 -96.152344 C 30.679688 -95.964844 30.679688 -95.964844 30.492188 -95.964844 Z M 30.304688 -95.402344 C 30.117188 -95.402344 30.117188 -95.402344 30.117188 -95.589844 C 30.117188 -95.777344 30.117188 -95.777344 30.304688 -95.777344 C 30.492188 -95.777344 30.492188 -95.777344 30.492188 -95.589844 C 30.492188 -95.402344 30.492188 -95.402344 30.304688 -95.402344 Z M 29.929688 -94.09375 C 29.742188 -94.09375 29.742188 -94.09375 29.742188 -94.28125 C 29.742188 -94.46875 29.742188 -94.46875 29.929688 -94.46875 C 30.117188 -94.46875 30.117188 -94.46875 30.117188 -94.28125 C 30.117188 -94.09375 30.117188 -94.09375 29.929688 -94.09375 Z M 29.742188 -94.09375 C 29.929688 -94.09375 29.929688 -93.90625 29.929688 -93.53125 C 29.742188 -93.53125 29.742188 -93.71875 29.742188 -94.09375 Z M 29.742188 -92.96875 C 29.742188 -92.035156 29.554688 -91.285156 29.367188 -90.914062 L 29.183594 -91.285156 C 29.183594 -91.847656 29.183594 -92.785156 29.742188 -93.34375 Z M 29.183594 -90.164062 L 28.996094 -90.351562 L 29.183594 -90.726562 Z M 28.996094 -89.042969 C 28.808594 -89.042969 28.808594 -89.230469 28.808594 -89.789062 L 28.996094 -89.789062 Z M 28.621094 -86.984375 L 28.433594 -86.609375 L 28.433594 -86.984375 C 28.246094 -87.171875 28.246094 -87.359375 28.246094 -87.359375 L 28.621094 -87.359375 Z M 28.246094 -85.300781 C 28.058594 -85.300781 28.058594 -85.300781 28.058594 -85.488281 C 28.058594 -85.675781 28.058594 -85.675781 28.246094 -85.675781 C 28.433594 -85.675781 28.433594 -85.675781 28.433594 -85.488281 C 28.433594 -85.300781 28.433594 -85.300781 28.246094 -85.300781 Z M 28.246094 -84.738281 C 28.246094 -84.554688 28.246094 -84.554688 28.058594 -84.554688 C 28.246094 -84.554688 28.246094 -84.554688 28.246094 -84.367188 C 28.246094 -84.179688 28.246094 -84.179688 28.058594 -84.179688 C 27.871094 -84.179688 27.871094 -84.179688 27.871094 -84.367188 C 27.871094 -84.554688 27.871094 -84.554688 28.058594 -84.554688 C 27.871094 -84.554688 27.871094 -84.554688 27.871094 -84.738281 C 27.871094 -84.925781 27.871094 -84.925781 28.058594 -84.925781 C 27.871094 -84.925781 27.871094 -84.925781 27.871094 -85.113281 C 27.871094 -85.300781 27.871094 -85.300781 28.058594 -85.300781 C 28.246094 -85.300781 28.246094 -85.300781 28.246094 -85.113281 C 28.246094 -84.925781 28.246094 -84.925781 28.058594 -84.925781 C 28.246094 -84.925781 28.246094 -84.925781 28.246094 -84.738281 Z M 27.871094 -83.804688 L 28.058594 -83.992188 C 28.058594 -83.804688 28.058594 -83.804688 27.871094 -83.804688 Z M 27.683594 -82.683594 L 27.871094 -82.871094 C 27.871094 -82.683594 27.871094 -82.683594 27.683594 -82.683594 Z M 27.5 -81.933594 C 27.3125 -81.933594 27.3125 -81.933594 27.3125 -82.121094 C 27.3125 -82.308594 27.3125 -82.308594 27.5 -82.308594 C 27.683594 -82.308594 27.683594 -82.308594 27.683594 -82.121094 C 27.683594 -81.933594 27.683594 -81.933594 27.5 -81.933594 Z M 27.5 -81.371094 C 27.3125 -81.371094 27.3125 -81.371094 27.3125 -81.558594 C 27.3125 -81.746094 27.3125 -81.746094 27.5 -81.746094 C 27.683594 -81.746094 27.683594 -81.746094 27.683594 -81.558594 C 27.683594 -81.371094 27.683594 -81.371094 27.5 -81.371094 Z M 27.3125 -80.625 L 27.5 -80.8125 C 27.5 -80.625 27.5 -80.625 27.3125 -80.625 Z M 27.125 -79.316406 L 26.9375 -79.316406 C 26.9375 -79.875 26.9375 -80.25 27.125 -80.4375 Z M 26.9375 -78.753906 C 26.75 -78.753906 26.75 -78.753906 26.75 -78.941406 C 26.75 -79.128906 26.75 -79.128906 26.9375 -79.128906 C 27.125 -79.128906 27.125 -79.128906 27.125 -78.941406 C 27.125 -78.753906 27.125 -78.753906 26.9375 -78.753906 Z M 26.75 -78.566406 L 26.75 -78.753906 L 26.9375 -78.566406 Z M 26.5625 -76.882812 C 26.375 -76.882812 26.375 -77.070312 26.375 -77.257812 C 26.375 -77.445312 26.375 -77.445312 26.5625 -77.445312 C 26.75 -77.445312 26.75 -77.445312 26.75 -77.257812 C 26.75 -77.070312 26.75 -76.882812 26.5625 -76.882812 Z M 26.375 -75.761719 C 26.1875 -75.761719 26.1875 -75.761719 26.1875 -75.949219 C 26.1875 -76.136719 26.1875 -76.136719 26.375 -76.136719 C 26.5625 -76.136719 26.5625 -76.136719 26.5625 -75.949219 C 26.5625 -75.761719 26.5625 -75.761719 26.375 -75.761719 Z M 26 -74.824219 C 25.816406 -74.824219 25.816406 -74.824219 25.816406 -75.011719 C 25.816406 -75.199219 25.816406 -75.199219 26 -75.199219 C 26.1875 -75.199219 26.1875 -75.199219 26.1875 -75.011719 C 26.1875 -74.824219 26.1875 -74.824219 26 -74.824219 Z M 25.816406 -74.078125 L 26 -73.890625 C 25.816406 -73.890625 25.816406 -73.890625 25.816406 -74.078125 Z M 25.816406 -73.328125 L 26 -73.703125 C 26 -73.515625 26 -73.515625 25.816406 -73.328125 Z M 25.628906 -72.582031 L 25.816406 -72.769531 C 25.816406 -72.582031 25.816406 -72.582031 25.628906 -72.582031 Z M 25.253906 -71.832031 L 25.441406 -71.644531 L 25.253906 -71.644531 Z M 25.441406 -71.085938 L 25.628906 -71.269531 C 25.628906 -71.085938 25.628906 -71.085938 25.441406 -71.085938 Z M 25.253906 -70.710938 C 25.066406 -70.710938 25.066406 -70.710938 25.066406 -70.898438 C 25.066406 -71.085938 25.066406 -71.085938 25.253906 -71.085938 C 25.441406 -71.085938 25.441406 -71.085938 25.441406 -70.898438 C 25.441406 -70.710938 25.441406 -70.710938 25.253906 -70.710938 Z M 25.253906 -69.960938 C 25.253906 -69.585938 25.253906 -69.214844 25.066406 -68.839844 C 24.878906 -68.464844 24.878906 -68.089844 24.878906 -67.71875 L 24.503906 -67.71875 C 24.503906 -68.839844 24.691406 -69.773438 25.066406 -70.710938 C 25.066406 -70.523438 25.066406 -70.523438 25.253906 -70.335938 Z M 24.503906 -66.78125 C 24.316406 -66.78125 24.316406 -66.96875 24.316406 -67.15625 C 24.316406 -67.34375 24.316406 -67.34375 24.503906 -67.34375 C 24.691406 -67.34375 24.691406 -67.34375 24.691406 -67.15625 C 24.691406 -66.96875 24.691406 -66.78125 24.503906 -66.78125 Z M 24.316406 -65.285156 L 24.132812 -64.910156 L 23.945312 -65.660156 L 24.316406 -65.847656 Z M 23.945312 -64.351562 L 23.945312 -63.976562 C 23.757812 -63.976562 23.757812 -64.164062 23.757812 -64.351562 Z M 23.570312 -63.976562 C 23.757812 -63.976562 23.757812 -63.976562 23.757812 -63.789062 C 23.757812 -63.601562 23.757812 -63.601562 23.570312 -63.601562 C 23.382812 -63.601562 23.382812 -63.601562 23.382812 -63.789062 C 23.382812 -63.976562 23.382812 -63.976562 23.570312 -63.976562 Z M 23.945312 -63.414062 C 23.757812 -63.414062 23.757812 -63.414062 23.757812 -63.601562 C 23.757812 -63.789062 23.757812 -63.789062 23.945312 -63.789062 C 24.132812 -63.789062 24.132812 -63.789062 24.132812 -63.601562 C 24.132812 -63.414062 24.132812 -63.414062 23.945312 -63.414062 Z M 23.757812 -63.039062 C 23.570312 -63.039062 23.570312 -63.039062 23.570312 -63.226562 C 23.570312 -63.414062 23.570312 -63.414062 23.757812 -63.414062 C 23.945312 -63.414062 23.945312 -63.414062 23.945312 -63.226562 C 23.945312 -63.039062 23.945312 -63.039062 23.757812 -63.039062 Z M 23.570312 -61.917969 L 23.382812 -62.105469 C 23.382812 -62.292969 23.382812 -62.292969 23.570312 -62.480469 L 23.570312 -62.851562 L 23.757812 -62.480469 Z M 23.195312 -60.234375 L 23.007812 -60.421875 C 23.007812 -60.609375 23.007812 -60.796875 23.195312 -60.984375 C 23.195312 -61.355469 23.382812 -61.542969 23.570312 -61.542969 Z M 23.007812 -59.484375 L 23.195312 -59.671875 C 23.195312 -59.484375 23.195312 -59.484375 23.007812 -59.484375 Z M 22.820312 -58.550781 C 22.820312 -58.363281 22.820312 -58.363281 22.632812 -58.363281 C 22.449219 -58.363281 22.449219 -58.363281 22.449219 -58.550781 C 22.449219 -58.738281 22.449219 -58.738281 22.632812 -58.738281 C 22.632812 -58.925781 22.632812 -58.925781 22.820312 -58.925781 C 23.007812 -58.925781 23.007812 -58.925781 23.007812 -58.738281 C 23.007812 -58.550781 23.007812 -58.550781 22.820312 -58.550781 Z M 22.632812 -58.738281 C 22.632812 -58.550781 22.632812 -58.550781 22.820312 -58.550781 C 22.820312 -58.738281 22.820312 -58.738281 22.632812 -58.738281 Z M 22.632812 -57.429688 C 22.449219 -57.429688 22.449219 -57.429688 22.449219 -57.617188 C 22.449219 -57.800781 22.449219 -57.800781 22.632812 -57.800781 C 22.820312 -57.800781 22.820312 -57.800781 22.820312 -57.617188 C 22.820312 -57.429688 22.820312 -57.429688 22.632812 -57.429688 Z M 22.261719 -56.117188 L 22.261719 -56.492188 C 22.261719 -56.867188 22.261719 -57.242188 22.449219 -57.429688 C 22.632812 -57.429688 22.632812 -57.242188 22.632812 -57.054688 C 22.632812 -56.867188 22.449219 -56.679688 22.261719 -56.117188 Z M 22.074219 -55.183594 L 22.261719 -55.371094 C 22.261719 -55.183594 22.261719 -55.183594 22.074219 -55.183594 Z M 21.886719 -54.25 C 21.699219 -54.25 21.699219 -54.433594 21.699219 -54.621094 C 21.699219 -54.808594 21.699219 -54.808594 21.886719 -54.808594 C 22.074219 -54.808594 22.074219 -54.808594 22.074219 -54.621094 C 22.074219 -54.433594 22.074219 -54.25 21.886719 -54.25 Z M 21.886719 -53.6875 L 22.074219 -53.875 C 22.074219 -53.6875 22.074219 -53.6875 21.886719 -53.6875 Z M 21.699219 -53.125 C 21.511719 -53.125 21.511719 -53.3125 21.511719 -53.5 L 21.699219 -53.5 Z M 21.511719 -52.566406 C 21.324219 -52.566406 21.324219 -52.566406 21.324219 -52.75 C 21.324219 -52.9375 21.324219 -52.9375 21.511719 -52.9375 C 21.699219 -52.9375 21.699219 -52.9375 21.699219 -52.75 C 21.699219 -52.566406 21.699219 -52.566406 21.511719 -52.566406 Z M 21.136719 -52.191406 C 20.949219 -52.191406 20.949219 -52.191406 20.949219 -52.378906 C 20.949219 -52.566406 20.949219 -52.566406 21.136719 -52.566406 C 21.324219 -52.566406 21.324219 -52.566406 21.324219 -52.378906 C 21.324219 -52.191406 21.324219 -52.191406 21.136719 -52.191406 Z M 21.324219 -51.441406 L 21.136719 -51.253906 C 21.136719 -51.628906 21.136719 -51.816406 21.324219 -51.816406 Z M 20.765625 -50.132812 L 21.136719 -50.507812 C 21.136719 -50.320312 20.949219 -50.132812 20.765625 -50.132812 Z M 20.949219 -49.386719 L 20.765625 -49.011719 L 20.765625 -49.386719 C 20.765625 -49.757812 20.765625 -49.757812 20.949219 -49.757812 Z M 20.578125 -47.328125 C 20.578125 -46.953125 20.390625 -46.765625 20.203125 -46.765625 L 20.203125 -47.515625 C 20.203125 -47.703125 20.203125 -47.886719 20.390625 -47.886719 L 20.578125 -47.886719 Z M 20.015625 -45.644531 L 20.015625 -46.019531 C 20.015625 -46.390625 20.015625 -46.390625 20.203125 -46.390625 L 20.390625 -46.203125 C 20.390625 -46.019531 20.203125 -45.832031 20.015625 -45.644531 Z M 19.828125 -44.707031 L 20.015625 -44.894531 C 20.015625 -44.707031 20.015625 -44.707031 19.828125 -44.707031 Z M 19.640625 -44.335938 L 19.828125 -44.335938 C 19.828125 -43.960938 19.828125 -43.773438 19.640625 -43.773438 Z M 19.828125 -43.210938 C 19.828125 -43.023438 19.828125 -43.023438 19.640625 -43.023438 C 19.640625 -42.835938 19.640625 -42.835938 19.453125 -42.835938 C 19.265625 -42.835938 19.265625 -42.835938 19.265625 -43.023438 C 19.265625 -43.210938 19.265625 -43.210938 19.453125 -43.210938 C 19.453125 -43.398438 19.453125 -43.398438 19.640625 -43.398438 C 19.640625 -43.585938 19.640625 -43.585938 19.828125 -43.585938 C 20.015625 -43.585938 20.015625 -43.585938 20.015625 -43.398438 C 20.015625 -43.210938 20.015625 -43.210938 19.828125 -43.210938 Z M 19.640625 -43.398438 C 19.640625 -43.210938 19.640625 -43.210938 19.828125 -43.210938 C 19.828125 -43.398438 19.828125 -43.398438 19.640625 -43.398438 Z M 19.453125 -43.210938 C 19.453125 -43.023438 19.453125 -43.023438 19.640625 -43.023438 C 19.640625 -43.210938 19.640625 -43.210938 19.453125 -43.210938 Z M 19.640625 -42.464844 C 19.453125 -42.464844 19.453125 -42.464844 19.453125 -42.652344 C 19.453125 -42.835938 19.453125 -42.835938 19.640625 -42.835938 C 19.828125 -42.835938 19.828125 -42.835938 19.828125 -42.652344 C 19.828125 -42.464844 19.828125 -42.464844 19.640625 -42.464844 Z M 19.453125 -42.277344 L 19.265625 -42.277344 L 19.453125 -42.464844 Z M 19.265625 -40.96875 C 19.082031 -40.59375 18.894531 -40.21875 19.082031 -39.84375 C 18.894531 -40.03125 18.894531 -40.21875 18.894531 -40.78125 C 18.894531 -40.96875 18.894531 -40.96875 19.082031 -41.152344 L 19.082031 -41.527344 C 19.082031 -41.714844 19.082031 -41.714844 19.265625 -41.902344 L 19.453125 -41.902344 C 19.453125 -41.527344 19.453125 -41.152344 19.265625 -40.96875 Z M 18.894531 -39.097656 L 18.707031 -38.722656 L 18.519531 -38.722656 C 18.519531 -39.285156 18.707031 -39.46875 18.894531 -39.65625 Z M 18.519531 -37.972656 L 18.707031 -38.160156 C 18.707031 -37.972656 18.707031 -37.972656 18.519531 -37.972656 Z M 18.519531 -37.414062 C 18.332031 -37.414062 18.332031 -37.414062 18.332031 -37.601562 C 18.332031 -37.785156 18.332031 -37.785156 18.519531 -37.785156 C 18.707031 -37.785156 18.707031 -37.785156 18.707031 -37.601562 C 18.707031 -37.414062 18.707031 -37.414062 18.519531 -37.414062 Z M 18.144531 -36.476562 C 17.957031 -36.476562 17.957031 -36.476562 17.957031 -36.664062 C 17.957031 -36.851562 17.957031 -36.851562 18.144531 -36.851562 C 18.332031 -36.851562 18.332031 -36.851562 18.332031 -36.664062 C 18.332031 -36.476562 18.332031 -36.476562 18.144531 -36.476562 Z M 18.144531 -35.730469 L 17.957031 -35.730469 L 18.144531 -36.101562 Z M 17.582031 -34.605469 L 17.769531 -35.355469 C 17.957031 -35.167969 17.957031 -34.980469 17.957031 -34.605469 Z M 17.769531 -34.046875 L 17.582031 -34.046875 L 17.769531 -34.234375 Z M 17.582031 -33.296875 L 17.398438 -32.921875 L 17.398438 -33.671875 L 17.582031 -33.671875 Z M 17.210938 -31.800781 L 17.023438 -31.800781 L 17.210938 -31.988281 Z M 17.023438 -31.050781 C 17.023438 -30.492188 16.835938 -30.117188 16.648438 -29.742188 L 16.648438 -30.117188 L 17.023438 -31.425781 Z M 16.460938 -28.996094 C 16.273438 -28.996094 16.273438 -28.996094 16.273438 -29.183594 C 16.273438 -29.367188 16.273438 -29.367188 16.460938 -29.367188 C 16.648438 -29.367188 16.648438 -29.367188 16.648438 -29.183594 C 16.648438 -28.996094 16.648438 -28.996094 16.460938 -28.996094 Z M 16.460938 -28.433594 C 16.273438 -28.433594 16.273438 -28.433594 16.273438 -28.621094 C 16.273438 -28.808594 16.273438 -28.808594 16.460938 -28.808594 C 16.648438 -28.808594 16.648438 -28.808594 16.648438 -28.621094 C 16.648438 -28.433594 16.648438 -28.433594 16.460938 -28.433594 Z M 16.085938 -28.246094 C 16.273438 -28.246094 16.273438 -28.246094 16.273438 -28.058594 C 16.273438 -27.871094 16.273438 -27.871094 16.085938 -27.871094 C 15.902344 -27.871094 15.902344 -27.871094 15.902344 -28.058594 C 15.902344 -28.246094 15.902344 -28.246094 16.085938 -28.246094 Z M 16.273438 -27.3125 C 16.085938 -27.3125 16.085938 -27.3125 16.085938 -27.5 C 16.085938 -27.683594 16.085938 -27.683594 16.273438 -27.683594 C 16.460938 -27.683594 16.460938 -27.683594 16.460938 -27.5 C 16.460938 -27.3125 16.460938 -27.3125 16.273438 -27.3125 Z M 16.085938 -27.125 L 16.273438 -26.9375 C 16.085938 -26.9375 16.085938 -26.9375 16.085938 -27.125 Z M 15.902344 -25.816406 C 15.714844 -25.816406 15.714844 -25.816406 15.714844 -26 C 15.714844 -26.1875 15.714844 -26.1875 15.902344 -26.1875 C 16.085938 -26.1875 16.085938 -26.1875 16.085938 -26 C 16.085938 -25.816406 16.085938 -25.816406 15.902344 -25.816406 Z M 15.714844 -25.253906 C 15.527344 -25.253906 15.527344 -25.253906 15.527344 -25.441406 C 15.527344 -25.628906 15.527344 -25.628906 15.714844 -25.628906 C 15.902344 -25.628906 15.902344 -25.628906 15.902344 -25.441406 C 15.902344 -25.253906 15.902344 -25.253906 15.714844 -25.253906 Z M 15.714844 -24.691406 C 15.714844 -24.503906 15.714844 -24.503906 15.527344 -24.503906 C 15.339844 -24.503906 15.339844 -24.503906 15.339844 -24.691406 C 15.339844 -24.878906 15.339844 -24.878906 15.527344 -24.878906 C 15.527344 -25.066406 15.527344 -25.066406 15.714844 -25.066406 C 15.902344 -25.066406 15.902344 -25.066406 15.902344 -24.878906 C 15.902344 -24.691406 15.902344 -24.691406 15.714844 -24.691406 Z M 15.527344 -24.878906 C 15.527344 -24.691406 15.527344 -24.691406 15.714844 -24.691406 C 15.714844 -24.878906 15.714844 -24.878906 15.527344 -24.878906 Z M 15.339844 -24.316406 L 15.527344 -24.132812 C 15.339844 -24.132812 15.339844 -24.132812 15.339844 -24.316406 Z M 15.527344 -23.195312 L 15.339844 -23.195312 L 15.339844 -23.945312 L 15.527344 -23.945312 Z M 14.964844 -22.074219 C 14.964844 -22.449219 14.964844 -22.632812 15.152344 -22.820312 C 15.152344 -22.261719 15.152344 -22.074219 14.964844 -22.074219 Z M 14.964844 -21.136719 C 14.964844 -20.203125 14.777344 -19.453125 14.21875 -18.894531 C 14.21875 -19.640625 14.777344 -21.136719 14.964844 -21.699219 Z M 14.21875 -17.398438 L 14.402344 -17.582031 C 14.402344 -17.398438 14.402344 -17.398438 14.21875 -17.398438 Z M 13.84375 -16.460938 C 13.84375 -16.835938 13.84375 -17.023438 14.03125 -17.023438 C 14.03125 -16.648438 14.03125 -16.460938 13.84375 -16.460938 Z M 13.84375 -15.714844 L 13.65625 -16.085938 L 13.84375 -16.085938 Z M 13.65625 -14.589844 L 13.46875 -14.402344 C 13.46875 -14.777344 13.46875 -14.964844 13.65625 -14.964844 Z M 13.28125 -13.65625 C 13.28125 -13.65625 13.28125 -13.65625 13.09375 -13.46875 L 13.09375 -13.65625 L 13.28125 -14.21875 C 13.46875 -14.21875 13.46875 -14.03125 13.46875 -13.84375 C 13.46875 -13.65625 13.46875 -13.65625 13.28125 -13.65625 Z M 13.09375 -11.785156 C 12.90625 -11.785156 12.90625 -11.785156 12.90625 -11.972656 C 12.90625 -12.160156 12.90625 -12.160156 13.09375 -12.160156 C 13.28125 -12.160156 13.28125 -12.160156 13.28125 -11.972656 C 13.28125 -11.785156 13.28125 -11.785156 13.09375 -11.785156 Z M 12.90625 -11.410156 C 12.71875 -11.410156 12.71875 -11.410156 12.71875 -11.597656 C 12.71875 -11.785156 12.71875 -11.785156 12.90625 -11.785156 C 13.09375 -11.785156 13.09375 -11.785156 13.09375 -11.597656 C 13.09375 -11.410156 13.09375 -11.410156 12.90625 -11.410156 Z M 12.90625 -10.664062 L 12.71875 -10.476562 L 12.71875 -11.035156 L 12.90625 -11.035156 Z M 12.535156 -10.101562 L 12.535156 -10.289062 L 12.71875 -10.101562 Z M 12.71875 -9.351562 C 12.71875 -9.167969 12.71875 -9.167969 12.535156 -9.167969 C 12.535156 -8.980469 12.535156 -8.980469 12.347656 -8.980469 C 12.535156 -8.980469 12.535156 -8.980469 12.535156 -8.792969 C 12.535156 -8.605469 12.535156 -8.605469 12.347656 -8.605469 C 12.160156 -8.605469 12.160156 -8.605469 12.160156 -8.792969 C 12.160156 -8.980469 12.160156 -8.980469 12.347656 -8.980469 C 12.160156 -8.980469 12.160156 -8.980469 12.160156 -9.167969 C 12.160156 -9.351562 12.160156 -9.351562 12.347656 -9.351562 C 12.347656 -9.539062 12.347656 -9.539062 12.535156 -9.539062 C 12.347656 -9.539062 12.347656 -9.539062 12.347656 -9.726562 C 12.347656 -9.914062 12.347656 -9.914062 12.535156 -9.914062 C 12.71875 -9.914062 12.71875 -9.914062 12.71875 -9.726562 C 12.71875 -9.539062 12.71875 -9.539062 12.535156 -9.539062 C 12.71875 -9.539062 12.71875 -9.539062 12.71875 -9.351562 Z M 12.347656 -9.351562 C 12.347656 -9.167969 12.347656 -9.167969 12.535156 -9.167969 C 12.535156 -9.351562 12.535156 -9.351562 12.347656 -9.351562 Z M 12.347656 -8.042969 C 12.160156 -8.042969 12.160156 -8.042969 12.160156 -8.230469 C 12.160156 -8.417969 12.160156 -8.417969 12.347656 -8.417969 C 12.535156 -8.417969 12.535156 -8.417969 12.535156 -8.230469 C 12.535156 -8.042969 12.535156 -8.042969 12.347656 -8.042969 Z M 12.160156 -7.484375 L 12.347656 -7.667969 C 12.347656 -7.484375 12.347656 -7.484375 12.160156 -7.484375 Z M 12.160156 -6.921875 C 11.972656 -6.921875 11.972656 -6.921875 11.972656 -7.109375 C 11.972656 -7.296875 11.972656 -7.296875 12.160156 -7.296875 C 12.347656 -7.296875 12.347656 -7.296875 12.347656 -7.109375 C 12.347656 -6.921875 12.347656 -6.921875 12.160156 -6.921875 Z M 11.972656 -6.359375 L 12.160156 -6.546875 C 12.160156 -6.359375 12.160156 -6.359375 11.972656 -6.359375 Z M 11.785156 -4.863281 L 11.597656 -5.425781 C 11.597656 -5.613281 11.597656 -5.613281 11.785156 -5.800781 L 11.972656 -5.984375 Z M 11.410156 -3.554688 L 11.410156 -4.488281 L 11.597656 -4.488281 C 11.597656 -4.117188 11.597656 -3.742188 11.410156 -3.554688 Z M 11.410156 -2.617188 C 11.222656 -2.617188 11.222656 -2.617188 11.222656 -2.804688 C 11.222656 -2.992188 11.222656 -2.992188 11.410156 -2.992188 C 11.597656 -2.992188 11.597656 -2.992188 11.597656 -2.804688 C 11.597656 -2.617188 11.597656 -2.617188 11.410156 -2.617188 Z M 11.410156 -2.617188 "/></g></g></g><g fill="#464a4e" fill-opacity="1"><g transform="translate(-13.288955, 155.890142)"><g><path d="M 17.558594 -79.183594 C 17.558594 -73.332031 24.789062 -69.542969 28.917969 -67.824219 L 49.578125 -58.183594 C 52.332031 -56.804688 60.25 -54.394531 64.035156 -53.363281 L 64.378906 -53.363281 C 65.070312 -53.363281 65.414062 -53.707031 65.414062 -54.394531 L 65.414062 -55.085938 C 64.378906 -55.429688 63.003906 -56.117188 61.96875 -57.496094 L 62.316406 -57.496094 C 62.660156 -57.496094 62.660156 -57.496094 62.660156 -57.839844 L 62.660156 -58.183594 C 62.316406 -58.183594 62.316406 -58.183594 62.316406 -58.527344 L 28.230469 -76.429688 C 27.542969 -76.773438 27.199219 -77.117188 27.199219 -77.464844 C 27.199219 -77.808594 28.230469 -79.527344 28.574219 -79.871094 L 57.496094 -110.515625 C 61.28125 -114.300781 68.167969 -122.5625 68.167969 -128.417969 L 67.132812 -128.417969 L 65.414062 -126.695312 L 65.414062 -127.039062 C 65.414062 -127.726562 65.414062 -128.417969 65.757812 -129.105469 C 66.101562 -129.449219 66.101562 -130.136719 66.101562 -130.480469 C 66.101562 -131.171875 66.101562 -131.515625 65.757812 -131.515625 C 64.722656 -131.515625 64.035156 -130.828125 63.003906 -129.792969 L 60.59375 -127.382812 L 45.445312 -109.136719 L 19.625 -84.003906 C 18.246094 -82.28125 17.558594 -80.5625 17.558594 -79.183594 Z M 65.070312 -126.695312 C 65.414062 -126.695312 65.414062 -126.695312 65.414062 -126.351562 C 65.414062 -126.007812 65.414062 -126.007812 65.070312 -126.007812 C 64.722656 -126.007812 64.722656 -126.007812 64.722656 -126.351562 C 64.722656 -126.695312 64.722656 -126.695312 65.070312 -126.695312 Z M 64.035156 -125.316406 C 64.378906 -125.316406 64.378906 -125.316406 64.378906 -124.972656 C 64.378906 -124.628906 64.378906 -124.628906 64.035156 -124.628906 C 63.691406 -124.628906 63.691406 -124.628906 63.691406 -124.972656 C 63.691406 -125.316406 63.691406 -125.316406 64.035156 -125.316406 Z M 62.660156 -122.90625 C 62.660156 -123.253906 62.660156 -123.253906 63.003906 -123.253906 C 63.347656 -122.90625 63.347656 -122.90625 63.003906 -122.90625 C 62.660156 -122.5625 62.660156 -122.5625 62.660156 -122.90625 Z M 62.316406 -122.21875 C 62.660156 -121.875 62.660156 -121.875 62.316406 -121.875 C 61.96875 -121.53125 61.96875 -121.53125 61.96875 -121.875 C 61.96875 -122.21875 61.96875 -122.21875 62.316406 -122.21875 Z M 61.625 -120.84375 L 61.625 -121.1875 L 61.96875 -121.1875 Z M 59.558594 -118.777344 C 59.90625 -118.777344 59.90625 -118.777344 59.90625 -118.433594 C 59.90625 -118.089844 59.90625 -118.089844 59.558594 -118.089844 C 59.214844 -118.089844 59.214844 -118.089844 59.214844 -118.433594 C 59.214844 -118.777344 59.214844 -118.777344 59.558594 -118.777344 Z M 58.183594 -117.054688 C 58.183594 -117.398438 58.183594 -117.398438 58.527344 -117.398438 C 58.871094 -117.054688 58.871094 -117.054688 58.527344 -117.054688 C 58.183594 -116.710938 58.183594 -116.710938 58.183594 -117.054688 Z M 56.804688 -114.988281 C 56.804688 -115.332031 56.804688 -115.332031 57.152344 -115.332031 C 57.496094 -114.988281 57.496094 -114.988281 57.152344 -114.988281 C 56.804688 -114.644531 56.804688 -114.644531 56.804688 -114.988281 Z M 55.429688 -113.269531 L 54.742188 -112.921875 C 54.742188 -113.269531 54.742188 -113.269531 55.429688 -113.269531 Z M 52.675781 -110.515625 L 53.019531 -110.859375 C 53.363281 -110.859375 53.363281 -110.859375 53.363281 -110.515625 C 53.363281 -110.167969 53.363281 -110.167969 53.019531 -110.167969 L 52.675781 -109.824219 C 52.332031 -109.824219 52.332031 -109.824219 52.332031 -110.167969 C 52.332031 -110.515625 52.332031 -110.515625 52.675781 -110.515625 Z M 49.578125 -106.726562 C 49.578125 -107.070312 49.578125 -107.070312 49.921875 -107.070312 C 50.265625 -107.070312 50.265625 -107.070312 50.265625 -106.726562 C 50.265625 -106.382812 50.265625 -106.382812 49.921875 -106.382812 C 49.578125 -106.382812 49.578125 -106.382812 49.578125 -106.726562 Z M 48.542969 -105.695312 L 48.886719 -106.039062 C 49.230469 -106.039062 49.230469 -106.039062 49.230469 -105.695312 C 49.230469 -105.351562 49.230469 -105.351562 48.886719 -105.351562 L 48.542969 -105.003906 C 48.199219 -105.003906 48.199219 -105.003906 48.199219 -105.351562 C 48.199219 -105.695312 48.199219 -105.695312 48.542969 -105.695312 Z M 46.132812 -102.941406 L 46.476562 -103.285156 L 46.820312 -103.285156 L 46.132812 -102.25 L 45.789062 -102.25 C 45.789062 -102.25 45.789062 -102.59375 46.132812 -102.941406 Z M 44.410156 -100.875 L 43.722656 -100.53125 C 43.722656 -100.875 43.722656 -100.875 44.410156 -100.875 Z M 42.347656 -98.808594 L 41.65625 -98.464844 C 41.65625 -98.808594 41.65625 -98.808594 42.347656 -98.808594 Z M 39.59375 -96.054688 L 38.902344 -95.710938 C 38.902344 -96.054688 38.902344 -96.054688 39.59375 -96.054688 Z M 33.050781 -89.511719 L 33.050781 -89.855469 L 33.394531 -89.855469 Z M 29.609375 -85.039062 C 29.265625 -85.039062 29.265625 -85.039062 28.917969 -85.726562 C 29.265625 -85.726562 29.265625 -85.726562 29.609375 -85.039062 Z M 26.507812 -83.316406 C 26.855469 -83.316406 26.855469 -83.316406 26.855469 -82.972656 C 26.855469 -82.628906 26.855469 -82.628906 26.507812 -82.628906 C 26.164062 -82.628906 26.164062 -82.628906 26.164062 -82.972656 C 26.164062 -83.316406 26.164062 -83.316406 26.507812 -83.316406 Z M 25.476562 -82.28125 C 25.476562 -82.628906 25.476562 -82.628906 25.820312 -82.628906 C 26.164062 -82.628906 26.164062 -82.628906 26.164062 -82.28125 C 26.164062 -81.9375 26.164062 -81.9375 25.820312 -81.9375 C 25.476562 -81.9375 25.476562 -81.9375 25.476562 -82.28125 Z M 19.625 -76.085938 C 19.625 -76.429688 19.625 -76.429688 19.96875 -76.429688 C 20.3125 -76.429688 20.3125 -76.429688 20.3125 -76.085938 C 20.3125 -75.742188 20.3125 -75.742188 19.96875 -75.742188 C 19.625 -75.742188 19.625 -75.742188 19.625 -76.085938 Z M 19.625 -76.085938 "/></g></g></g><g fill="#464a4e" fill-opacity="1"><g transform="translate(163.280018, -5.899113)"><g><path d="M -17.558594 79.183594 C -17.558594 73.332031 -24.789062 69.542969 -28.917969 67.824219 L -49.578125 58.183594 C -52.332031 56.804688 -60.25 54.394531 -64.035156 53.363281 L -64.378906 53.363281 C -65.070312 53.363281 -65.414062 53.707031 -65.414062 54.394531 L -65.414062 55.085938 C -64.378906 55.429688 -63.003906 56.117188 -61.96875 57.496094 L -62.316406 57.496094 C -62.660156 57.496094 -62.660156 57.496094 -62.660156 57.839844 L -62.660156 58.183594 C -62.316406 58.183594 -62.316406 58.183594 -62.316406 58.527344 L -28.230469 76.429688 C -27.542969 76.773438 -27.199219 77.117188 -27.199219 77.464844 C -27.199219 77.808594 -28.230469 79.527344 -28.574219 79.871094 L -57.496094 110.515625 C -61.28125 114.300781 -68.167969 122.5625 -68.167969 128.417969 L -67.132812 128.417969 L -65.414062 126.695312 L -65.414062 127.039062 C -65.414062 127.726562 -65.414062 128.417969 -65.757812 129.105469 C -66.101562 129.449219 -66.101562 130.136719 -66.101562 130.480469 C -66.101562 131.171875 -66.101562 131.515625 -65.757812 131.515625 C -64.722656 131.515625 -64.035156 130.828125 -63.003906 129.792969 L -60.59375 127.382812 L -45.445312 109.136719 L -19.625 84.003906 C -18.246094 82.28125 -17.558594 80.5625 -17.558594 79.183594 Z M -65.070312 126.695312 C -65.414062 126.695312 -65.414062 126.695312 -65.414062 126.351562 C -65.414062 126.007812 -65.414062 126.007812 -65.070312 126.007812 C -64.722656 126.007812 -64.722656 126.007812 -64.722656 126.351562 C -64.722656 126.695312 -64.722656 126.695312 -65.070312 126.695312 Z M -64.035156 125.316406 C -64.378906 125.316406 -64.378906 125.316406 -64.378906 124.972656 C -64.378906 124.628906 -64.378906 124.628906 -64.035156 124.628906 C -63.691406 124.628906 -63.691406 124.628906 -63.691406 124.972656 C -63.691406 125.316406 -63.691406 125.316406 -64.035156 125.316406 Z M -62.660156 122.90625 C -62.660156 123.253906 -62.660156 123.253906 -63.003906 123.253906 C -63.347656 122.90625 -63.347656 122.90625 -63.003906 122.90625 C -62.660156 122.5625 -62.660156 122.5625 -62.660156 122.90625 Z M -62.316406 122.21875 C -62.660156 121.875 -62.660156 121.875 -62.316406 121.875 C -61.96875 121.53125 -61.96875 121.53125 -61.96875 121.875 C -61.96875 122.21875 -61.96875 122.21875 -62.316406 122.21875 Z M -61.625 120.84375 L -61.625 121.1875 L -61.96875 121.1875 Z M -59.558594 118.777344 C -59.90625 118.777344 -59.90625 118.777344 -59.90625 118.433594 C -59.90625 118.089844 -59.90625 118.089844 -59.558594 118.089844 C -59.214844 118.089844 -59.214844 118.089844 -59.214844 118.433594 C -59.214844 118.777344 -59.214844 118.777344 -59.558594 118.777344 Z M -58.183594 117.054688 C -58.183594 117.398438 -58.183594 117.398438 -58.527344 117.398438 C -58.871094 117.054688 -58.871094 117.054688 -58.527344 117.054688 C -58.183594 116.710938 -58.183594 116.710938 -58.183594 117.054688 Z M -56.804688 114.988281 C -56.804688 115.332031 -56.804688 115.332031 -57.152344 115.332031 C -57.496094 114.988281 -57.496094 114.988281 -57.152344 114.988281 C -56.804688 114.644531 -56.804688 114.644531 -56.804688 114.988281 Z M -55.429688 113.269531 L -54.742188 112.921875 C -54.742188 113.269531 -54.742188 113.269531 -55.429688 113.269531 Z M -52.675781 110.515625 L -53.019531 110.859375 C -53.363281 110.859375 -53.363281 110.859375 -53.363281 110.515625 C -53.363281 110.167969 -53.363281 110.167969 -53.019531 110.167969 L -52.675781 109.824219 C -52.332031 109.824219 -52.332031 109.824219 -52.332031 110.167969 C -52.332031 110.515625 -52.332031 110.515625 -52.675781 110.515625 Z M -49.578125 106.726562 C -49.578125 107.070312 -49.578125 107.070312 -49.921875 107.070312 C -50.265625 107.070312 -50.265625 107.070312 -50.265625 106.726562 C -50.265625 106.382812 -50.265625 106.382812 -49.921875 106.382812 C -49.578125 106.382812 -49.578125 106.382812 -49.578125 106.726562 Z M -48.542969 105.695312 L -48.886719 106.039062 C -49.230469 106.039062 -49.230469 106.039062 -49.230469 105.695312 C -49.230469 105.351562 -49.230469 105.351562 -48.886719 105.351562 L -48.542969 105.003906 C -48.199219 105.003906 -48.199219 105.003906 -48.199219 105.351562 C -48.199219 105.695312 -48.199219 105.695312 -48.542969 105.695312 Z M -46.132812 102.941406 L -46.476562 103.285156 L -46.820312 103.285156 L -46.132812 102.25 L -45.789062 102.25 C -45.789062 102.25 -45.789062 102.59375 -46.132812 102.941406 Z M -44.410156 100.875 L -43.722656 100.53125 C -43.722656 100.875 -43.722656 100.875 -44.410156 100.875 Z M -42.347656 98.808594 L -41.65625 98.464844 C -41.65625 98.808594 -41.65625 98.808594 -42.347656 98.808594 Z M -39.59375 96.054688 L -38.902344 95.710938 C -38.902344 96.054688 -38.902344 96.054688 -39.59375 96.054688 Z M -33.050781 89.511719 L -33.050781 89.855469 L -33.394531 89.855469 Z M -29.609375 85.039062 C -29.265625 85.039062 -29.265625 85.039062 -28.917969 85.726562 C -29.265625 85.726562 -29.265625 85.726562 -29.609375 85.039062 Z M -26.507812 83.316406 C -26.855469 83.316406 -26.855469 83.316406 -26.855469 82.972656 C -26.855469 82.628906 -26.855469 82.628906 -26.507812 82.628906 C -26.164062 82.628906 -26.164062 82.628906 -26.164062 82.972656 C -26.164062 83.316406 -26.164062 83.316406 -26.507812 83.316406 Z M -25.476562 82.28125 C -25.476562 82.628906 -25.476562 82.628906 -25.820312 82.628906 C -26.164062 82.628906 -26.164062 82.628906 -26.164062 82.28125 C -26.164062 81.9375 -26.164062 81.9375 -25.820312 81.9375 C -25.476562 81.9375 -25.476562 81.9375 -25.476562 82.28125 Z M -19.625 76.085938 C -19.625 76.429688 -19.625 76.429688 -19.96875 76.429688 C -20.3125 76.429688 -20.3125 76.429688 -20.3125 76.085938 C -20.3125 75.742188 -20.3125 75.742188 -19.96875 75.742188 C -19.625 75.742188 -19.625 75.742188 -19.625 76.085938 Z M -19.625 76.085938 "/></g></g></g></svg>